<?xml version="1.0" encoding="UTF-8" standalone="no"?>
<svg width="241px" height="24px" viewBox="0 0 241 24" version="1.1" xmlns="http://www.w3.org/2000/svg" xmlns:xlink="http://www.w3.org/1999/xlink" xmlns:sketch="http://www.bohemiancoding.com/sketch/ns">
    <!-- Generator: Sketch 3.3.3 (12072) - http://www.bohemiancoding.com/sketch -->
    <title>Imported Layers</title>
    <desc>Created with Sketch.</desc>
    <defs></defs>
    <g id="Page-1" stroke="none" stroke-width="1" fill="none" fill-rule="evenodd" sketch:type="MSPage">
        <g id="portfolio" sketch:type="MSArtboardGroup" transform="translate(-255.000000, -30.000000)">
            <g id="Imported-Layers" sketch:type="MSLayerGroup" transform="translate(255.000000, 30.000000)">
                <path d="M43.3596558,9.68504348 L44.7873983,9.68504348 L46.5797706,15.2577391 L48.4263939,9.66365217 L49.5432359,9.66365217 L51.3893377,15.2577391 L53.18171,9.68504348 L54.5671991,9.68504348 L51.9474978,17.2549565 L50.80979,17.2549565 L48.9631667,11.853913 L47.1165433,17.2549565 L45.9788355,17.2549565 L43.3596558,9.68504348" id="Fill-1" fill="#2D2E2B" sketch:type="MSShapeGroup"></path>
                <path d="M58.6892381,9.63130435 L59.9130173,9.63130435 L63.2192035,17.2012174 L61.823803,17.2012174 L61.0616797,15.386087 L57.5082338,15.386087 L56.7351558,17.2012174 L55.3825303,17.2012174 L58.6892381,9.63130435 L58.6892381,9.63130435 Z M60.5781147,14.2053913 L59.2797403,11.1991304 L57.9912771,14.2053913 L60.5781147,14.2053913 L60.5781147,14.2053913 Z" id="Fill-2" fill="#2D2E2B" sketch:type="MSShapeGroup"></path>
                <path d="M65.5812121,9.68504348 L66.9014957,9.68504348 L66.9014957,15.9876522 L70.8513918,15.9876522 L70.8513918,17.2012174 L65.5812121,17.2012174 L65.5812121,9.68504348" id="Fill-3" fill="#2D2E2B" sketch:type="MSShapeGroup"></path>
                <path d="M73.2994719,9.68504348 L74.5227294,9.68504348 L78.5482641,14.882087 L78.5482641,9.68504348 L79.8476818,9.68504348 L79.8476818,17.2012174 L78.7412727,17.2012174 L74.5978463,11.853913 L74.5978463,17.2012174 L73.2994719,17.2012174 L73.2994719,9.68504348" id="Fill-4" fill="#2D2E2B" sketch:type="MSShapeGroup"></path>
                <path d="M85.9337143,17.3191304 C85.4470195,17.3191304 85.0067511,17.2492174 84.6129091,17.109913 C84.2195887,16.970087 83.8836494,16.7608696 83.6045693,16.4817391 C83.3254892,16.202087 83.1100498,15.8572174 82.959816,15.4455652 C82.8095823,15.033913 82.734987,14.556 82.734987,14.0123478 L82.734987,9.68504348 L84.0552706,9.68504348 L84.0552706,13.9586087 C84.0552706,14.6598261 84.2232403,15.1930435 84.5597013,15.5582609 C84.8956407,15.9234783 85.3609481,16.1055652 85.9556234,16.1055652 C86.5419524,16.1055652 87.0030866,15.9302609 87.3400693,15.5796522 C87.6760087,15.2290435 87.8445,14.7062609 87.8445,14.0123478 L87.8445,9.68504348 L89.1647835,9.68504348 L89.1647835,13.9476522 C89.1647835,14.505913 89.0875801,14.9963478 88.9336948,15.4184348 C88.7803312,15.8410435 88.5638485,16.1937391 88.2842468,16.476 C88.0056883,16.7587826 87.6676623,16.970087 87.2701688,17.109913 C86.8726753,17.2492174 86.4277121,17.3191304 85.9337143,17.3191304" id="Fill-5" fill="#2D2E2B" sketch:type="MSShapeGroup"></path>
                <path d="M93.8992338,10.898087 L91.5163593,10.898087 L91.5163593,9.68504348 L97.6029134,9.68504348 L97.6029134,10.898087 L95.2195173,10.898087 L95.2195173,17.2012174 L93.8992338,17.2012174 L93.8992338,10.898087" id="Fill-6" fill="#2D2E2B" sketch:type="MSShapeGroup"></path>
                <path d="M107.864714,17.330087 C107.32116,17.330087 106.814643,17.2293913 106.345684,17.0290435 C105.877247,16.8286957 105.472972,16.5553043 105.132859,16.2078261 C104.793268,15.8608696 104.526708,15.4507826 104.333177,14.9786087 C104.140169,14.505913 104.043143,14.0013913 104.043143,13.4645217 L104.043143,13.4431304 C104.043143,12.9062609 104.138082,12.4033043 104.327961,11.9347826 C104.51784,11.4657391 104.783879,11.054087 105.127643,10.6998261 C105.471407,10.3455652 105.880898,10.0664348 106.356639,9.86191304 C106.8329,9.65843478 107.353502,9.55617391 107.918965,9.55617391 C108.262208,9.55617391 108.575195,9.58486957 108.857926,9.64226087 C109.140658,9.69965217 109.400437,9.78 109.636221,9.88382609 C109.872526,9.98765217 110.090574,10.1113043 110.291407,10.2542609 C110.491719,10.3972174 110.681076,10.5547826 110.860522,10.7264348 L110.012327,11.7036522 C109.711859,11.4245217 109.392613,11.1991304 109.056673,11.0274783 C108.720212,10.8553043 108.337325,10.7697391 107.908011,10.7697391 C107.550162,10.7697391 107.218918,10.8396522 106.914799,10.9789565 C106.61068,11.1182609 106.349335,11.3081739 106.131288,11.5476522 C105.912719,11.7876522 105.741097,12.0688696 105.615903,12.3907826 C105.491229,12.7126957 105.428632,13.0565217 105.428632,13.4217391 L105.428632,13.4431304 C105.428632,13.8083478 105.491229,14.1537391 105.615903,14.4793043 C105.741097,14.8048696 105.912719,15.0897391 106.131288,15.3328696 C106.349335,15.576 106.61068,15.7674783 106.914799,15.9073043 C107.218918,16.0466087 107.550162,16.1165217 107.908011,16.1165217 C108.137013,16.1165217 108.348279,16.0930435 108.541288,16.0466087 C108.734297,16.0001739 108.916872,15.936 109.089015,15.8535652 C109.260636,15.7711304 109.427041,15.6693913 109.587708,15.5478261 C109.749418,15.4257391 109.907998,15.2895652 110.065535,15.1393043 L110.913729,15.9986087 C110.720721,16.1989565 110.518323,16.3815652 110.307056,16.545913 C110.096312,16.7107826 109.868874,16.8516522 109.625266,16.970087 C109.38218,17.088 109.115619,17.1777391 108.825584,17.2387826 C108.536071,17.2993043 108.21526,17.330087 107.864714,17.330087" id="Fill-7" fill="#2D2E2B" sketch:type="MSShapeGroup"></path>
                <path d="M113.372242,9.68504348 L116.721203,9.68504348 C117.193292,9.68504348 117.612173,9.75130435 117.977325,9.88382609 C118.342476,10.0163478 118.646074,10.2005217 118.889682,10.4363478 C119.089994,10.644 119.243879,10.884 119.351338,11.1553043 C119.458797,11.4271304 119.512526,11.7276522 119.512526,12.0568696 L119.512526,12.0787826 C119.512526,12.693913 119.346121,13.1890435 119.013312,13.5646957 C118.680502,13.9403478 118.249623,14.2033043 117.719632,14.3535652 L119.748831,17.2012174 L118.191721,17.2012174 L116.345619,14.5810435 L114.692526,14.5810435 L114.692526,17.2012174 L113.372242,17.2012174 L113.372242,9.68504348 L113.372242,9.68504348 Z M116.624699,13.3998261 C117.09731,13.3998261 117.472372,13.2881739 117.751974,13.0648696 C118.031054,12.8415652 118.170333,12.537913 118.170333,12.1549565 L118.170333,12.1335652 C118.170333,11.7286957 118.034706,11.421913 117.762407,11.2121739 C117.49063,11.0029565 117.107742,10.898087 116.614266,10.898087 L114.692526,10.898087 L114.692526,13.3998261 L116.624699,13.3998261 L116.624699,13.3998261 Z" id="Fill-8" fill="#2D2E2B" sketch:type="MSShapeGroup"></path>
                <path d="M122.206823,9.68504348 L127.77747,9.68504348 L127.77747,10.8662609 L123.527106,10.8662609 L123.527106,12.8201739 L127.294948,12.8201739 L127.294948,14.0013913 L123.527106,14.0013913 L123.527106,16.02 L127.831721,16.02 L127.831721,17.2012174 L122.206823,17.2012174 L122.206823,9.68504348" id="Fill-9" fill="#2D2E2B" sketch:type="MSShapeGroup"></path>
                <path d="M130.47281,9.68504348 L136.043978,9.68504348 L136.043978,10.8662609 L131.793615,10.8662609 L131.793615,12.8201739 L135.560935,12.8201739 L135.560935,14.0013913 L131.793615,14.0013913 L131.793615,16.02 L136.098229,16.02 L136.098229,17.2012174 L130.47281,17.2012174 L130.47281,9.68504348" id="Fill-10" fill="#2D2E2B" sketch:type="MSShapeGroup"></path>
                <path d="M138.738797,9.68504348 L140.05908,9.68504348 L140.05908,13.4645217 L143.633913,9.68504348 L145.254665,9.68504348 L142.131054,12.9166957 L145.394465,17.2012174 L143.79458,17.2012174 L141.228608,13.8187826 L140.05908,15.0213913 L140.05908,17.2012174 L138.738797,17.2012174 L138.738797,9.68504348" id="Fill-11" fill="#2D2E2B" sketch:type="MSShapeGroup"></path>
                <path d="M151.963541,9.68504348 L153.283825,9.68504348 L153.283825,17.2006957 L151.963541,17.2006957 L151.963541,9.68504348 Z" id="Fill-12" fill="#2D2E2B" sketch:type="MSShapeGroup"></path>
                <path d="M156.36466,9.68504348 L157.588439,9.68504348 L161.613974,14.882087 L161.613974,9.68504348 L162.91287,9.68504348 L162.91287,17.2012174 L161.806983,17.2012174 L157.663035,11.853913 L157.663035,17.2012174 L156.36466,17.2012174 L156.36466,9.68504348" id="Fill-13" fill="#2D2E2B" sketch:type="MSShapeGroup"></path>
                <path d="M165.274357,9.68504348 L166.734442,9.68504348 L168.999424,15.4617391 L171.253974,9.68504348 L172.681195,9.68504348 L169.557584,17.2549565 L168.397968,17.2549565 L165.274357,9.68504348" id="Fill-14" fill="#2D2E2B" sketch:type="MSShapeGroup"></path>
                <path d="M175.043725,9.68504348 L180.614372,9.68504348 L180.614372,10.8662609 L176.364009,10.8662609 L176.364009,12.8201739 L180.131851,12.8201739 L180.131851,14.0013913 L176.364009,14.0013913 L176.364009,16.02 L180.668623,16.02 L180.668623,17.2012174 L175.043725,17.2012174 L175.043725,9.68504348" id="Fill-15" fill="#2D2E2B" sketch:type="MSShapeGroup"></path>
                <path d="M185.938803,17.3081739 C185.359255,17.3081739 184.805268,17.2090435 184.275277,17.0102609 C183.745286,16.8114783 183.255461,16.5067826 182.80476,16.0951304 L183.599225,15.1502609 C183.963855,15.4653913 184.332136,15.7069565 184.704591,15.8749565 C185.076524,16.0434783 185.499056,16.1269565 185.971667,16.1269565 C186.379071,16.1269565 186.703013,16.0413913 186.94297,15.8702609 C187.182405,15.6986087 187.302905,15.470087 187.302905,15.1841739 L187.302905,15.1622609 C187.302905,15.0271304 187.279431,14.9071304 187.233004,14.8033043 C187.186056,14.6994783 187.100506,14.6013913 186.975312,14.5085217 C186.850117,14.4156522 186.678496,14.330087 186.459405,14.2513043 C186.241879,14.1730435 185.957061,14.0942609 185.606515,14.016 C185.20537,13.9158261 184.85013,13.8083478 184.538186,13.694087 C184.226764,13.5798261 183.96542,13.4384348 183.754675,13.2704348 C183.543931,13.1029565 183.382221,12.8968696 183.271632,12.6542609 C183.160522,12.4111304 183.105227,12.1184348 183.105227,11.7756522 L183.105227,11.7537391 C183.105227,11.4323478 183.169911,11.1375652 183.298236,10.8693913 C183.427082,10.6017391 183.604442,10.3726957 183.829792,10.1833043 C184.055143,9.99443478 184.325355,9.84573913 184.640429,9.73878261 C184.955502,9.63130435 185.298745,9.57808696 185.671199,9.57808696 C186.221535,9.57808696 186.717619,9.65895652 187.157366,9.82121739 C187.597634,9.984 188.010777,10.2208696 188.397316,10.5313043 L187.688922,11.532 C187.34568,11.2815652 187.005567,11.090087 186.669106,10.9575652 C186.332645,10.8250435 185.993054,10.7587826 185.64929,10.7587826 C185.263273,10.7587826 184.962284,10.8448696 184.747366,11.0165217 C184.53297,11.1876522 184.425511,11.3984348 184.425511,11.6483478 L184.425511,11.6697391 C184.425511,11.8126957 184.45055,11.94 184.501149,12.0506087 C184.550706,12.1612174 184.641994,12.2613913 184.774491,12.3506087 C184.906989,12.4403478 185.089565,12.5243478 185.322219,12.6026087 C185.554351,12.6813913 185.850123,12.7633043 186.20745,12.8493913 C186.608595,12.9422609 186.959141,13.0513043 187.259608,13.176 C187.560076,13.3012174 187.810465,13.4514783 188.010777,13.6262609 C188.21161,13.8015652 188.363409,14.0034783 188.467216,14.2314783 C188.571024,14.4605217 188.623188,14.7318261 188.623188,15.0464348 L188.623188,15.0683478 C188.623188,15.4184348 188.556939,15.7325217 188.424442,16.0111304 C188.291944,16.2902609 188.107803,16.526087 187.872019,16.7186087 C187.635193,16.9116522 187.352461,17.0582609 187.023825,17.1584348 C186.694145,17.258087 186.332645,17.3081739 185.938803,17.3081739" id="Fill-16" fill="#2D2E2B" sketch:type="MSShapeGroup"></path>
                <path d="M192.938236,10.898087 L190.555361,10.898087 L190.555361,9.68504348 L196.641916,9.68504348 L196.641916,10.898087 L194.259041,10.898087 L194.259041,17.2012174 L192.938236,17.2012174 L192.938236,10.898087" id="Fill-17" fill="#2D2E2B" sketch:type="MSShapeGroup"></path>
                <path d="M199.121816,9.68504348 L200.527649,9.68504348 L202.814541,13.2391304 L205.100911,9.68504348 L206.507266,9.68504348 L206.507266,17.2012174 L205.186983,17.2012174 L205.186983,11.8111304 L202.814541,15.3542609 L202.771245,15.3542609 L200.42019,11.8325217 L200.42019,17.2012174 L199.121816,17.2012174 L199.121816,9.68504348" id="Fill-18" fill="#2D2E2B" sketch:type="MSShapeGroup"></path>
                <path d="M209.513506,9.68504348 L215.084675,9.68504348 L215.084675,10.8662609 L210.83379,10.8662609 L210.83379,12.8201739 L214.601632,12.8201739 L214.601632,14.0013913 L210.83379,14.0013913 L210.83379,16.02 L215.138405,16.02 L215.138405,17.2012174 L209.513506,17.2012174 L209.513506,9.68504348" id="Fill-19" fill="#2D2E2B" sketch:type="MSShapeGroup"></path>
                <path d="M217.779494,9.68504348 L219.002751,9.68504348 L223.028286,14.882087 L223.028286,9.68504348 L224.327182,9.68504348 L224.327182,17.2012174 L223.221294,17.2012174 L219.077868,11.853913 L219.077868,17.2012174 L217.779494,17.2012174 L217.779494,9.68504348" id="Fill-20" fill="#2D2E2B" sketch:type="MSShapeGroup"></path>
                <path d="M229.179002,10.898087 L226.796128,10.898087 L226.796128,9.68504348 L232.882682,9.68504348 L232.882682,10.898087 L230.499286,10.898087 L230.499286,17.2012174 L229.179002,17.2012174 L229.179002,10.898087" id="Fill-21" fill="#2D2E2B" sketch:type="MSShapeGroup"></path>
                <path d="M237.831006,17.3081739 C237.251459,17.3081739 236.69695,17.2090435 236.167481,17.0102609 C235.637489,16.8114783 235.147143,16.5067826 234.696442,16.0951304 L235.491429,15.1502609 C235.856058,15.4653913 236.22434,15.7069565 236.596794,15.8749565 C236.968727,16.0434783 237.390738,16.1269565 237.863348,16.1269565 C238.271275,16.1269565 238.595216,16.0413913 238.835173,15.8702609 C239.074608,15.6986087 239.194587,15.470087 239.194587,15.1841739 L239.194587,15.1622609 C239.194587,15.0271304 239.171113,14.9071304 239.125208,14.8033043 C239.07826,14.6994783 238.99271,14.6013913 238.866994,14.5085217 C238.741799,14.4156522 238.570177,14.330087 238.351608,14.2513043 C238.133561,14.1730435 237.848742,14.0942609 237.498197,14.016 C237.097574,13.9158261 236.741812,13.8083478 236.43039,13.694087 C236.118968,13.5798261 235.857623,13.4384348 235.646357,13.2704348 C235.435613,13.1029565 235.274424,12.8968696 235.163835,12.6542609 C235.052725,12.4111304 234.996909,12.1184348 234.996909,11.7756522 L234.996909,11.7537391 C234.996909,11.4323478 235.061593,11.1375652 235.189918,10.8693913 C235.319286,10.6017391 235.496123,10.3726957 235.721996,10.1833043 C235.947346,9.99443478 236.217037,9.84573913 236.532632,9.73878261 C236.847184,9.63130435 237.190426,9.57808696 237.562881,9.57808696 C238.113738,9.57808696 238.609301,9.65895652 239.049569,9.82121739 C239.489838,9.984 239.902981,10.2208696 240.289519,10.5313043 L239.580604,11.532 C239.237361,11.2815652 238.897771,11.090087 238.560788,10.9575652 C238.224848,10.8250435 237.885258,10.7587826 237.540972,10.7587826 C237.154955,10.7587826 236.854487,10.8448696 236.639569,11.0165217 C236.425173,11.1876522 236.317714,11.3984348 236.317714,11.6483478 L236.317714,11.6697391 C236.317714,11.8126957 236.342232,11.94 236.392831,12.0506087 C236.442909,12.1612174 236.534197,12.2613913 236.666695,12.3506087 C236.798671,12.4403478 236.981247,12.5243478 237.2139,12.6026087 C237.446554,12.6813913 237.741805,12.7633043 238.099654,12.8493913 C238.500277,12.9422609 238.850823,13.0513043 239.15129,13.176 C239.451758,13.3012174 239.702669,13.4514783 239.902981,13.6262609 C240.103292,13.8015652 240.255613,14.0034783 240.35942,14.2314783 C240.463227,14.4605217 240.51487,14.7318261 240.51487,15.0464348 L240.51487,15.0683478 C240.51487,15.4184348 240.449143,15.7325217 240.316645,16.0111304 C240.184147,16.2902609 239.999485,16.526087 239.763701,16.7186087 C239.527396,16.9116522 239.244665,17.0582609 238.915506,17.1584348 C238.585827,17.258087 238.224848,17.3081739 237.831006,17.3081739" id="Fill-22" fill="#2D2E2B" sketch:type="MSShapeGroup"></path>
                <path d="M34.3372835,0.580173913 L10.2769286,0.513391304 L10.2884048,0.540521739 L0.48512987,0.513391304 L10.1449524,23.4866087 L16.0113723,14.1547826 L19.9341429,23.4866087 L34.3372835,0.580173913 L34.3372835,0.580173913 Z M22.2612013,1.83808696 L16.235158,11.4229565 L12.1944957,1.80991304 L22.2612013,1.83808696 L22.2612013,1.83808696 Z M10.3671732,20.7563478 L2.39069913,1.78278261 L10.8204827,1.80626087 L15.4130455,12.7309565 L10.3671732,20.7563478 L10.3671732,20.7563478 Z M23.7687554,1.81513043 L32.0535216,1.83808696 L20.1589719,20.7563478 L16.8340065,12.8462609 L23.7687554,1.81513043 L23.7687554,1.81513043 Z" id="Fill-23" fill="#C2B170" sketch:type="MSShapeGroup"></path>
            </g>
        </g>
    </g>
</svg>